<svg xmlns="http://www.w3.org/2000/svg" width="220" height="138" viewBox="0 0 220 138">
    <g fill="#FFFFFE" fill-rule="evenodd">
        <path d="M219.92 66.855c-.494-4.615-2.197-8.47-9.065-13.212-6.097-4.21-14.226-6.497-17.567-7.51-3.34-1.014-11.172-2.426-15.728-3.991-3.398-1.168-4.787-1.816-4.787-1.816s-1.32 1.185-1.71 2.323c-.39 1.137-.597 2.624-.03 4.132.565 1.508 1.56 2.202 1.56 2.202s10.927 3.574 15.33 4.887c4.402 1.311 11.231 3.251 14.548 4.514 4.132 1.572 7.14 3.104 8.825 5.402 2.627 3.583 2.735 7.24 2.302 10.24-.711 4.926-2.166 6.974-2.166 6.974s1.935-.479 4.365-3.106c2.737-2.959 4.619-6.424 4.124-11.04zm-21.569-23.362s.412-.555.463-2.05c.039-1.116-.394-2.504-1.183-3.56s-2.624-1.93-2.624-1.93-8.357-1.991-11.118-2.625c-3.355-.77-8.7-2.16-9.456-2.43-1.26-.453-5.13-1.555-5.13-1.555s-1.127.661-1.782 1.693c-.846 1.333-.985 2.497-.78 3.71.258 1.532.705 2.244 1.14 2.8.676.858 1.44 1.242 1.44 1.242s9.93 2.292 14.6 3.076c4.668.785 8.385 1.306 10.109 1.483 1.723.177 4.321.146 4.321.146zm-3.504-12.638c.048-.544.044-1.131-.256-2.16-.326-1.118-1.086-2.41-3.319-3.51-1.723-.85-8.235-2.926-8.235-2.926s-4.056-15.474-5.012-18.55c-.848-2.73-3.421-3.435-4.172-3.59-.75-.156-2.7-.414-4.647 1.146-1.947 1.56-2.285 4.024-1.929 5.55.355 1.525 2.825 10.513 2.825 10.513s-1.05-.047-1.89.195c-.84.241-1.63.573-2.461 1.391-.832.819-2.23 2.71-1.587 5.305.644 2.594 2.577 3.62 2.577 3.62s9.093 1.9 10.924 2.193c1.83.293 10.011 1.667 12.583 1.909 2.573.24 4.373.081 4.373.081s.15-.329.226-1.167zm-7.338 25.397c-4.074-1.304-6.865-2.443-6.865-2.443s2.388 7.403 6.384 14.04c3.024 5.023 5.623 8.446 7.863 10.407 1.523 1.333 2.446 1.938 2.446 1.938s2.04-2.975 2.888-4.838c.848-1.863 1.274-3.534 1.364-4.152.106-.73.042-1.124-1.203-3.024-1.395-2.127-2.126-2.943-3.69-5.805-1.36-2.487-1.917-3.71-1.917-3.71s-3.196-1.108-7.27-2.413z"/>
        <path d="M209.426 63.373c-2.352-2.53-4.686-3.173-7.585-3.328-2.6-.14-4.45.089-4.45.089s1.368 2.372 2.435 4.04c1.18 1.85 2.99 4.676 3.15 5.363.158.687-.162 2.073-.845 3.785-.68 1.706-1.277 2.977-3.213 5.938-2.123 3.245-5.67 6.197-5.67 6.197s.368-3.556.648-5.653c.12-.904.096-1.056.096-1.056s-2.227-2.164-4.113-4.41c-1.607-1.912-3.897-6.106-3.897-6.106s-.908 1.105-2.402 6.386c-1.378 4.872-1.576 9.096-1.523 11.367.028 1.262.222 2.398.222 2.398s1.324 7.637 3.12 12.554c1.909 5.23 3.924 9.192 5.197 11.094.955 1.427 1.856 2.325 1.856 2.325s2.6-1.374 2.97-3.646c.372-2.271 0-2.8-.742-4.754-.743-1.955-.69-3.276-.69-3.276s9.878-12.368 12.041-16.008c2.769-4.659 5.058-8.492 5.741-12.974.638-4.182-.04-7.842-2.346-10.325zM182.789 97.08c-.361-1.953-.94-7.535-.94-7.535s-.259-.385-1.705-.641c-1.448-.257-3.255-.065-4.866 1.133-1.61 1.197-1.957 3.203-1.957 3.203s.302 2.154.698 4.244c.542 2.852 1.616 6.983 2.848 10.822 1.228 3.825 4.095 9.364 5.628 11.496 1.474 2.052 3.494 3.593 3.494 3.593s1.308-.337 2.277-1.295c1.067-1.055 1.6-2.028 1.796-3.6.195-1.572-.737-3.143-.737-3.143s-.974-1.304-1.713-2.515c-.616-1.01-1.38-2.7-2.186-4.94-1.262-3.502-2.277-8.87-2.637-10.822zm-9.176 2.874s-1.33-.831-2.93-.742c-1.6.09-2.908.562-4.012 1.82-1.105 1.257-1.218 2.11-1.33 2.537-.113.426-.135 1.122-.135 1.122s1.172 5.3 1.938 7.725c.767 2.425 2.48 7.32 3.967 10.44 1.488 3.121 2.342 4.717 3.336 6.22.732 1.105.85 1.222 1.324 1.791.473.569 1.269 1.24 1.269 1.24s1.45.023 3.314-1.437c1.863-1.46 1.889-3.647 1.803-4.782-.076-1.02-.766-2.403-1.442-3.593-.677-1.19-3.201-5.674-4.284-9.326-1.082-3.652-2.103-7.769-2.366-9.64-.263-1.871-.452-3.375-.452-3.375zm-7.303 16.3s-10.144 10.374-11.722 12.328c-1.578 1.953-1.623 2.56-1.578 4.334.045 1.773 1.555 4.692 4.486 5.03 2.93.336 4.418-.922 5.395-1.91.977-.987 7.995-8.307 7.995-8.307s-.992-1.931-1.488-2.92c-.487-.97-1.247-2.739-2.029-4.984-.73-2.1-1.06-3.57-1.06-3.57zM160 88.558v-4.457h-1.164c-.93 0-1.397-.096-1.629-.179-.335-.117-.43-.257-.458-.3-.12-.177-.194-.425-.224-.74a17.226 17.226 0 0 1-.068-1.695v-38.79c0-2.15-.643-3.7-1.912-4.604-1.162-.824-2.576-1.241-4.202-1.241-.196 0-.409.015-.647.046-.102.014-.18.024-.239.024h-1.606v44.353c0 .866.04 1.764.115 2.668a7.204 7.204 0 0 0 .785 2.771c.469.905 1.193 1.63 2.152 2.162.952.531 2.22.789 3.872.789a19.5 19.5 0 0 0 2.403-.152c.848-.104 1.51-.236 2.028-.4l.794-.255zm-19.306-45.857c.489-1.2.734-2.485.734-3.854 0-1.37-.245-2.649-.734-3.84a9.75 9.75 0 0 0-2.032-3.123 9.616 9.616 0 0 0-3.063-2.11 9.348 9.348 0 0 0-3.796-.774c-1.355 0-2.621.258-3.797.774a9.442 9.442 0 0 0-3.048 2.11 9.859 9.859 0 0 0-2.018 3.123c-.49 1.191-.734 2.47-.734 3.84 0 1.37.244 2.654.734 3.854a9.7 9.7 0 0 0 2.032 3.137 9.63 9.63 0 0 0 3.049 2.11c1.166.515 2.427.774 3.782.774 1.354 0 2.62-.259 3.796-.774a9.607 9.607 0 0 0 3.063-2.11 9.71 9.71 0 0 0 2.032-3.137zm-2.09-3.883c0 .995-.16 1.937-.479 2.828a7.226 7.226 0 0 1-1.369 2.35 6.5 6.5 0 0 1-2.145 1.603c-.837.394-1.773.59-2.808.59s-1.967-.196-2.795-.59a6.54 6.54 0 0 1-2.13-1.604 7.215 7.215 0 0 1-1.37-2.349 8.291 8.291 0 0 1-.48-2.828c0-1.012.16-1.964.48-2.855.32-.89.777-1.673 1.37-2.349a6.385 6.385 0 0 1 2.13-1.59c.828-.383 1.76-.576 2.795-.576s1.971.193 2.808.576a6.349 6.349 0 0 1 2.145 1.59 7.23 7.23 0 0 1 1.37 2.349c.319.891.479 1.843.479 2.855zm-31.71 2.913a8.615 8.615 0 0 1-.466-2.856c0-1.013.15-1.97.452-2.87.3-.9.738-1.687 1.312-2.363a6.281 6.281 0 0 1 2.089-1.603c.818-.394 1.745-.59 2.78-.59.734 0 1.383.093 1.948.28a6.488 6.488 0 0 1 1.496.703 5.54 5.54 0 0 1 1.114.943c.31.347.58.68.805.999l1.92-1.632a8.762 8.762 0 0 0-1.031-1.238 8.03 8.03 0 0 0-1.524-1.196 9.008 9.008 0 0 0-2.075-.914c-.79-.244-1.684-.365-2.681-.365-1.411 0-2.696.257-3.853.773a8.94 8.94 0 0 0-2.978 2.124 9.784 9.784 0 0 0-1.933 3.151c-.462 1.2-.692 2.485-.692 3.854 0 1.407.23 2.706.692 3.897a9.316 9.316 0 0 0 1.933 3.094 8.747 8.747 0 0 0 2.964 2.04c1.147.487 2.418.732 3.81.732.978 0 1.872-.132 2.682-.395a9.819 9.819 0 0 0 2.145-.97 8.759 8.759 0 0 0 1.58-1.224c.433-.43.753-.816.96-1.153l-1.89-1.575c-.189.206-.42.464-.692.773-.274.31-.621.615-1.045.914-.423.3-.941.558-1.552.774-.612.216-1.341.323-2.187.323-.998 0-1.902-.187-2.71-.562a6.015 6.015 0 0 1-2.06-1.548 7.107 7.107 0 0 1-1.313-2.32zm-4.225 17.958c.456-1.008.688-1.976.688-2.878 0-.887-.273-1.634-.806-2.217-.463-.505-1.058-.903-1.765-1.181a9.446 9.446 0 0 0-1.992-.526 12.862 12.862 0 0 0-1.919-.157c-2.044 0-3.875.502-5.442 1.493-.764.484-1.439.991-2.018 1.52a4.296 4.296 0 0 0-1.49-1.467c-1.095-.651-2.333-.98-3.678-.98a3.84 3.84 0 0 0-.564.051c-.083.013-.166.02-.248.02h-1.681V88.94h8.605V64.37c0-.417.117-.811.36-1.207a4.397 4.397 0 0 1 1.117-1.207 6.226 6.226 0 0 1 3.71-1.208c.963 0 1.753.125 2.343.369a6.247 6.247 0 0 1 1.744 1.104l1.005.884.753-1.087c.434-.627.865-1.41 1.278-2.33zM70.364 88.94h1.163V58.93c0-2.151-.641-3.699-1.909-4.603-1.163-.825-2.576-1.243-4.201-1.243-.2 0-.418.015-.65.047-.1.014-.18.024-.238.024h-1.605V78.63c0 .104-.044.407-.447.944-.363.484-.89.954-1.561 1.397-.696.458-1.554.852-2.551 1.172-.984.314-2.09.473-3.288.473-1.045 0-1.964-.085-2.732-.256a5.339 5.339 0 0 1-1.988-.886c-.604-.408-.997-1.004-1.202-1.826-.249-1-.375-2.391-.375-4.136V58.871c0-2.164-.647-3.706-1.924-4.588-1.16-.795-2.568-1.199-4.186-1.199-.2 0-.415.015-.65.047-.1.014-.179.024-.236.024h-1.607v22.309c0 1.487.076 3.053.227 4.656.161 1.73.669 3.341 1.507 4.785.866 1.497 2.197 2.736 3.955 3.68 1.772.952 4.131 1.415 7.217 1.415 2.972 0 5.457-.46 7.382-1.368.91-.43 1.732-.894 2.46-1.391v1.7h7.44zm-35.448-.116l1.152-.55-.687-1.039-12.69-19.224a15.904 15.904 0 0 0 2.966-1.33 14.64 14.64 0 0 0 3.726-3.07c1.068-1.226 1.931-2.694 2.563-4.36.633-1.672.956-3.582.956-5.682 0-4.96-1.641-8.693-4.881-11.095-3.196-2.37-8.187-3.522-15.262-3.522-1.87 0-3.865.049-5.929.144a69.018 69.018 0 0 0-5.825.504L0 39.733V88.94h8.753v-19.36h4.772l11.18 16.726c1.449 2.169 3.543 3.27 6.221 3.27.602 0 1.259-.053 1.951-.154a7.193 7.193 0 0 0 2.04-.599zM20.935 60.277c-.955.67-2.107 1.158-3.42 1.454-1.384.31-2.96.467-4.682.467H8.68v-15.71c.385-.034.783-.061 1.19-.082.871-.046 1.892-.069 3.037-.069 1.75 0 3.364.114 4.794.34 1.34.212 2.488.602 3.41 1.16.877.531 1.534 1.254 2.008 2.207.49.986.737 2.287.737 3.867 0 1.534-.259 2.836-.772 3.865a6.558 6.558 0 0 1-2.148 2.501zm87.986 11.595c-1.463 1.75-2.205 4.002-2.205 6.699 0 2.148.391 3.961 1.16 5.387.766 1.417 1.76 2.569 2.95 3.42a10.648 10.648 0 0 0 3.972 1.746c1.378.3 2.765.451 4.122.451 2.966 0 5.42-.456 7.294-1.354a19.155 19.155 0 0 0 3.28-1.985 4.581 4.581 0 0 0 2.083 2.113c1.315.674 2.858 1.016 4.588 1.016.746 0 1.476-.053 2.17-.155a11.925 11.925 0 0 0 1.812-.395l.8-.253v-4.743h-1.163c-.655 0-1.183-.04-1.57-.117-.279-.057-.394-.158-.461-.234-.046-.05-.199-.262-.29-.857-.09-.57-.135-1.406-.135-2.485V66.207c0-2.11-.227-4.01-.674-5.648-.472-1.735-1.31-3.207-2.492-4.38-1.175-1.163-2.714-2.045-4.573-2.617-1.79-.552-4.026-.831-6.642-.831-1.531 0-3.108.123-4.69.368-1.592.246-3.064.595-4.377 1.037-1.351.456-2.478.992-3.356 1.595-1.106.762-1.667 1.647-1.667 2.635 0 .557.156 1.238.478 2.076.296.776.666 1.51 1.099 2.182l.34.528h1.75l.297-.197a19.532 19.532 0 0 1 4.177-2.1c1.39-.491 3.143-.741 5.21-.741 2.61 0 4.421.448 5.233 1.298.833.872 1.265 2.207 1.284 3.968a26.31 26.31 0 0 0-.384-.003h-1.578c-1.842.05-3.912.244-6.149.578a23.54 23.54 0 0 0-6.476 1.939c-2.06.963-3.815 2.303-5.217 3.978zm6.4 6.347c0-1.243.315-2.195.964-2.91.71-.781 1.652-1.404 2.797-1.855 1.223-.477 2.606-.81 4.109-.984a40.625 40.625 0 0 1 4.64-.275h.967v6.094c0 .303-.173.664-.517 1.07-.427.509-1.032.994-1.798 1.444-.796.47-1.737.873-2.796 1.196a11.175 11.175 0 0 1-3.28.476c-2.017 0-3.366-.402-4.01-1.196-.725-.89-1.077-1.89-1.077-3.06z"/>
    </g>
</svg>
