<?xml version="1.0" encoding="UTF-8"?>
<svg width="220px" height="139px" viewBox="0 0 220 139" version="1.1" xmlns="http://www.w3.org/2000/svg" xmlns:xlink="http://www.w3.org/1999/xlink">
    <!-- Generator: sketchtool 46.2 (44496) - http://www.bohemiancoding.com/sketch -->
    <title>E49C97FF-C152-4300-8456-F6CD92FA997C</title>
    <desc>Created with sketchtool.</desc>
    <defs>
        <polygon id="path-1" points="0.449180926 0.199 31.3389605 0.199 31.3389605 32.131955 0.449180926 32.131955"></polygon>
        <polygon id="path-3" points="49.484 0.347 49.484 40.842 0.136744112 40.842 0.136744112 0.347 49.484 0.347"></polygon>
    </defs>
    <g id="Symbols" stroke="none" stroke-width="1" fill="none" fill-rule="evenodd">
        <g id="Logo/Original" transform="translate(0.000000, -1.000000)">
            <g id="logo_original">
                <path d="M30.914,91.3374 C28.237,91.3374 26.143,90.2334 24.695,88.0584 L13.519,71.2834 L8.749,71.2834 L8.749,89.5844 L8.749,90.6994 L7.586,90.6994 L1.162,90.6994 L0,90.6994 L0,89.5844 L0,42.3194 L0,41.3484 L1.004,41.2144 C2.802,40.9764 4.762,40.8064 6.827,40.7104 C8.891,40.6134 10.884,40.5654 12.754,40.5654 C19.826,40.5654 24.815,41.7204 28.01,44.0974 C31.248,46.5054 32.889,50.2504 32.889,55.2254 C32.889,57.3314 32.567,59.2474 31.933,60.9224 C31.302,62.5944 30.439,64.0664 29.372,65.2964 C28.311,66.5214 27.059,67.5554 25.647,68.3754 C24.705,68.9214 23.712,69.3674 22.683,69.7094 L35.367,88.9884 L36.054,90.0304 L34.902,90.5824 C34.304,90.8684 33.619,91.0704 32.864,91.1834 C32.172,91.2834 31.516,91.3374 30.914,91.3374 L30.914,91.3374 Z M8.675,63.8794 L12.828,63.8794 C14.549,63.8794 16.124,63.7224 17.508,63.4114 C18.821,63.1134 19.973,62.6234 20.927,61.9534 C21.859,61.2954 22.562,60.4744 23.074,59.4434 C23.587,58.4124 23.846,57.1064 23.846,55.5674 C23.846,53.9834 23.598,52.6784 23.109,51.6904 C22.634,50.7334 21.978,50.0084 21.102,49.4764 C20.18,48.9174 19.032,48.5244 17.693,48.3124 C16.263,48.0864 14.65,47.9724 12.901,47.9724 C11.756,47.9724 10.735,47.9954 9.865,48.0414 C9.457,48.0624 9.06,48.0884 8.675,48.1234 L8.675,63.8794 Z" id="Fill-1" fill="#231F20"></path>
                <path d="M53.0619,91.7612 C49.9779,91.7612 47.6189,91.2972 45.8479,90.3422 C44.0909,89.3972 42.7599,88.1532 41.8949,86.6522 C41.0569,85.2032 40.5489,83.5872 40.3879,81.8532 C40.2369,80.2442 40.1609,78.6742 40.1609,77.1832 L40.1609,55.9262 L40.1609,54.8092 L41.3239,54.8092 L41.7669,54.8092 C41.8249,54.8092 41.9029,54.8002 42.0039,54.7852 C42.2379,54.7532 42.4529,54.7392 42.6529,54.7392 C44.2699,54.7392 45.6779,55.1432 46.8369,55.9422 C48.1139,56.8252 48.7609,58.3712 48.7609,60.5412 L48.7609,77.2332 C48.7609,78.9832 48.8869,80.3772 49.1359,81.3802 C49.3409,82.2042 49.7339,82.8022 50.3369,83.2122 C50.9679,83.6582 51.6119,83.9462 52.3239,84.1012 C53.0919,84.2722 54.0109,84.3572 55.0559,84.3572 C56.2539,84.3572 57.3589,84.1982 58.3419,83.8822 C59.3379,83.5622 60.1969,83.1672 60.8919,82.7072 C61.5639,82.2622 62.0899,81.7912 62.4529,81.3052 C62.8559,80.7682 62.8999,80.4642 62.8999,80.3602 L62.8999,55.9262 L62.8999,54.8092 L64.0619,54.8092 L64.5039,54.8092 C64.5629,54.8092 64.6419,54.8002 64.7429,54.7852 C64.9729,54.7532 65.1909,54.7392 65.3909,54.7392 C67.0159,54.7392 68.4289,55.1572 69.5909,55.9852 C70.8579,56.8912 71.4989,58.4442 71.4989,60.6012 L71.4989,89.5822 L71.4989,90.6992 L70.3369,90.6992 L64.0619,90.6992 L62.8999,90.6992 L62.8999,89.5822 L62.8999,88.9942 C62.1719,89.4932 61.3509,89.9582 60.4419,90.3902 C58.5169,91.3002 56.0339,91.7612 53.0619,91.7612" id="Fill-3" fill="#231F20"></path>
                <path d="M90.3246,90.6997 L89.1616,90.6997 L82.8856,90.6997 L81.7226,90.6997 L81.7226,89.5837 L81.7226,56.1377 L81.7226,55.0217 L82.8856,55.0217 L83.4026,55.0217 C83.4846,55.0217 83.5676,55.0157 83.6506,55.0017 C83.8816,54.9667 84.0676,54.9507 84.2146,54.9507 C85.5596,54.9507 86.7966,55.2807 87.8926,55.9337 C88.5136,56.3047 89.0096,56.7977 89.3806,57.4047 C89.9606,56.8747 90.6336,56.3667 91.3976,55.8797 C92.9646,54.8867 94.7946,54.3827 96.8386,54.3827 C97.4316,54.3827 98.0756,54.4367 98.7556,54.5407 C99.4546,54.6477 100.1246,54.8257 100.7476,55.0687 C101.4546,55.3477 102.0486,55.7457 102.5116,56.2527 C103.0446,56.8377 103.3176,57.5867 103.3176,58.4757 C103.3176,59.3817 103.0856,60.3517 102.6296,61.3627 C102.2166,62.2847 101.7856,63.0707 101.3526,63.6997 L100.5996,64.7897 L99.5946,63.9037 C99.0546,63.4237 98.4676,63.0517 97.8516,62.7957 C97.2616,62.5507 96.4726,62.4257 95.5106,62.4257 C94.8126,62.4257 94.1356,62.5347 93.4996,62.7517 C92.8516,62.9737 92.2956,63.2637 91.8016,63.6377 C91.3256,64.0007 90.9486,64.4087 90.6846,64.8477 C90.4416,65.2447 90.3246,65.6407 90.3246,66.0577 L90.3246,89.5837 L90.3246,90.6997 Z" id="Fill-5" fill="#231F20"></path>
                <path d="M118.8749,91.3364 C117.5179,91.3364 116.1309,91.1834 114.7539,90.8834 C113.3009,90.5684 111.9639,89.9794 110.7829,89.1324 C109.5929,88.2774 108.5999,87.1234 107.8349,85.7024 C107.0659,84.2724 106.6749,82.4544 106.6749,80.3004 C106.6749,77.5954 107.4169,75.3354 108.8789,73.5814 C110.2809,71.9004 112.0359,70.5574 114.0939,69.5914 C116.1029,68.6474 118.2809,67.9944 120.5679,67.6474 C122.8039,67.3114 124.8729,67.1164 126.7149,67.0674 L128.2919,67.0674 C128.4229,67.0674 128.5499,67.0694 128.6759,67.0704 C128.6559,65.3044 128.2259,63.9654 127.3919,63.0904 C126.5809,62.2384 124.7699,61.7894 122.1609,61.7894 C120.0949,61.7894 118.3429,62.0394 116.9529,62.5334 C115.5269,63.0424 114.1219,63.7504 112.7769,64.6384 L112.4789,64.8354 L112.1189,64.8354 L111.3799,64.8354 L110.7319,64.8354 L110.3909,64.3064 C109.9589,63.6314 109.5889,62.8964 109.2929,62.1184 C108.9719,61.2774 108.8149,60.5944 108.8149,60.0364 C108.8149,59.0454 109.3759,58.1574 110.4809,57.3934 C111.3589,56.7884 112.4859,56.2514 113.8359,55.7934 C115.1479,55.3504 116.6209,54.9994 118.2109,54.7534 C119.7929,54.5074 121.3689,54.3844 122.8989,54.3844 C125.5149,54.3844 127.7509,54.6644 129.5389,55.2184 C131.3979,55.7914 132.9359,56.6764 134.1109,57.8424 C135.2919,59.0194 136.1299,60.4954 136.6019,62.2354 C137.0479,63.8774 137.2759,65.7834 137.2759,67.9004 L137.2759,81.8584 C137.2759,82.9404 137.3209,83.7794 137.4099,84.3524 C137.5019,84.9474 137.6549,85.1604 137.6999,85.2104 C137.7669,85.2874 137.8819,85.3884 138.1599,85.4444 C138.5479,85.5234 139.0759,85.5624 139.7289,85.5624 L140.8929,85.5624 L140.8929,86.6784 L140.8929,89.5134 L140.8929,90.3194 L140.0939,90.5734 C139.5879,90.7324 138.9789,90.8674 138.2829,90.9704 C137.5879,91.0714 136.8579,91.1244 136.1129,91.1244 C134.3839,91.1244 132.8409,90.7814 131.5269,90.1064 C130.5899,89.6244 129.8939,88.9154 129.4439,87.9854 C128.4589,88.7334 127.3639,89.4004 126.1649,89.9774 C124.2919,90.8784 121.8399,91.3364 118.8749,91.3364 L118.8749,91.3364 Z M127.7809,73.9044 C126.2809,73.9044 124.7199,73.9984 123.1439,74.1804 C121.6409,74.3564 120.2579,74.6894 119.0359,75.1684 C117.8919,75.6194 116.9499,76.2454 116.2399,77.0274 C115.5919,77.7454 115.2759,78.6994 115.2759,79.9454 C115.2759,81.1194 115.6279,82.1234 116.3519,83.0164 C116.9959,83.8124 118.3449,84.2154 120.3599,84.2154 C121.5089,84.2154 122.6129,84.0544 123.6399,83.7364 C124.6989,83.4134 125.6389,83.0094 126.4339,82.5384 C127.1999,82.0874 127.8049,81.6004 128.2319,81.0904 C128.5759,80.6824 128.7489,80.3204 128.7489,80.0164 L128.7489,73.9044 L127.7809,73.9044 Z" id="Fill-7" fill="#231F20"></path>
                <path d="M154.7157,91.1245 C153.0637,91.1245 151.7967,90.8665 150.8447,90.3335 C149.8867,89.8005 149.1617,89.0725 148.6947,88.1655 C148.2597,87.3385 147.9947,86.4005 147.9097,85.3865 C147.8337,84.4795 147.7947,83.5795 147.7947,82.7105 L147.7947,39.3445 L147.7947,38.2285 L148.9577,38.2285 L149.4007,38.2285 C149.4577,38.2285 149.5357,38.2185 149.6377,38.2035 C149.8767,38.1725 150.0897,38.1575 150.2847,38.1575 C151.9107,38.1575 153.3237,38.5755 154.4867,39.4025 C155.7537,40.3095 156.3977,41.8635 156.3977,44.0195 L156.3977,82.9225 C156.3977,83.5985 156.4177,84.1705 156.4647,84.6235 C156.4947,84.9385 156.5697,85.1875 156.6897,85.3655 C156.7177,85.4075 156.8117,85.5485 157.1477,85.6655 C157.3787,85.7495 157.8457,85.8455 158.7767,85.8455 L159.9397,85.8455 L159.9397,86.9615 L159.9397,89.5115 L159.9397,90.3155 L159.1447,90.5705 C158.6267,90.7355 157.9657,90.8675 157.1177,90.9735 C156.3077,91.0735 155.4987,91.1245 154.7157,91.1245" id="Fill-9" fill="#231F20"></path>
                <g id="Group-13" transform="translate(163.000000, 0.801000)">
                    <mask id="mask-2" fill="white">
                        <use xlink:href="#path-1"></use>
                    </mask>
                    <g id="Clip-12"></g>
                    <path d="M6.5556,17.4505 C6.5556,17.4505 4.0836,8.5025 3.7286,6.9835 C3.3716,5.4645 3.7106,3.0115 5.6586,1.4585 C7.6066,-0.0945 9.5586,0.1625 10.3096,0.3165 C11.0606,0.4715 13.6336,1.1725 14.4836,3.8905 C15.4406,6.9535 19.4976,22.3595 19.4976,22.3595 C19.4976,22.3595 26.0126,24.4255 27.7386,25.2725 C29.9736,26.3685 30.7336,27.6545 31.0606,28.7675 C31.3606,29.7915 31.3646,30.3755 31.3156,30.9175 C31.2406,31.7525 31.0896,32.0805 31.0896,32.0805 C31.0896,32.0805 29.2876,32.2395 26.7136,31.9985 C24.1406,31.7585 15.9536,30.3905 14.1226,30.0985 C12.2906,29.8065 3.1926,27.9145 3.1926,27.9145 C3.1926,27.9145 1.2566,26.8935 0.6136,24.3115 C-0.0304,21.7285 1.3686,19.8455 2.2016,19.0305 C3.0336,18.2145 3.8226,17.8845 4.6626,17.6445 C5.5036,17.4045 6.5556,17.4505 6.5556,17.4505" id="Fill-11" fill="#E01B22" mask="url(#mask-2)"></path>
                </g>
                <path d="M168.7548,30.2134 C168.7548,30.2134 167.6268,30.8724 166.9728,31.8984 C166.1248,33.2264 165.9868,34.3844 166.1918,35.5924 C166.4498,37.1184 166.8978,37.8274 167.3328,38.3794 C168.0088,39.2354 168.7748,39.6164 168.7748,39.6164 C168.7748,39.6164 178.7098,41.8984 183.3828,42.6794 C188.0538,43.4604 191.7738,43.9794 193.4968,44.1554 C195.2228,44.3314 197.8218,44.3014 197.8218,44.3014 C197.8218,44.3014 198.2338,43.7484 198.2848,42.2594 C198.3228,41.1484 197.8908,39.7664 197.1018,38.7154 C196.3128,37.6644 194.4768,36.7934 194.4768,36.7934 C194.4768,36.7934 186.1128,34.8114 183.3518,34.1814 C179.9928,33.4144 174.6448,32.0314 173.8898,31.7614 C172.6278,31.3104 168.7548,30.2134 168.7548,30.2134" id="Fill-14" fill="#E01B22"></path>
                <g id="Group-18" transform="translate(170.000000, 40.801000)">
                    <mask id="mask-4" fill="white">
                        <use xlink:href="#path-3"></use>
                    </mask>
                    <g id="Clip-17"></g>
                    <path d="M2.2274,0.347 C2.2274,0.347 0.9074,1.527 0.5154,2.659 C0.1254,3.792 -0.0806,5.272 0.4864,6.773 C1.0524,8.275 2.0474,8.966 2.0474,8.966 C2.0474,8.966 12.9814,12.524 17.3864,13.831 C21.7924,15.137 28.6254,17.068 31.9454,18.325 C36.0794,19.89 39.0884,21.416 40.7744,23.703 C43.4044,27.271 43.5114,30.912 43.0794,33.898 C42.3674,38.802 40.9114,40.842 40.9114,40.842 C40.9114,40.842 42.8474,40.366 45.2794,37.75 C48.0174,34.804 49.9014,31.353 49.4054,26.759 C48.9104,22.164 47.2064,18.326 40.3324,13.605 C34.2324,9.415 26.0984,7.137 22.7564,6.128 C19.4144,5.119 11.5764,3.713 7.0174,2.155 C3.6174,0.992 2.2274,0.347 2.2274,0.347" id="Fill-16" fill="#E01B22" mask="url(#mask-4)"></path>
                </g>
                <path d="M180.1034,54.5718 C180.1034,54.5718 182.4934,61.9418 186.4924,68.5508 C189.5174,73.5508 192.1184,76.9588 194.3604,78.9108 C195.8834,80.2378 196.8074,80.8398 196.8074,80.8398 C196.8074,80.8398 198.8494,77.8788 199.6974,76.0238 C200.5444,74.1688 200.9714,72.5058 201.0624,71.8898 C201.1674,71.1638 201.1044,70.7718 199.8574,68.8798 C198.4614,66.7618 197.7304,65.9498 196.1654,63.0998 C194.8054,60.6248 194.2474,59.4068 194.2474,59.4068 C194.2474,59.4068 191.0484,58.3028 186.9724,57.0038 C182.8964,55.7058 180.1034,54.5718 180.1034,54.5718" id="Fill-19" fill="#E01B22"></path>
                <path d="M192.0341,116.0845 C192.0341,116.0845 194.6311,114.7065 195.0021,112.4275 C195.3731,110.1485 195.0021,109.6185 194.2601,107.6575 C193.5171,105.6965 193.5701,104.3725 193.5701,104.3725 C193.5701,104.3725 203.4381,91.9665 205.6001,88.3145 C208.3661,83.6425 210.6541,79.7975 211.3371,75.3015 C211.9731,71.1055 211.2971,67.4345 208.9911,64.9435 C206.6411,62.4065 204.3091,61.7625 201.4141,61.6055 C198.8151,61.4665 196.9681,61.6955 196.9681,61.6955 C196.9681,61.6955 198.3351,64.0755 199.4001,65.7495 C200.5811,67.6035 202.3881,70.4385 202.5471,71.1275 C202.7061,71.8155 202.3871,73.2065 201.7041,74.9245 C201.0241,76.6355 200.4281,77.9095 198.4931,80.8805 C196.3731,84.1365 192.8291,87.0965 192.8291,87.0965 C192.8291,87.0965 193.1961,83.5285 193.4751,81.4265 C193.5961,80.5195 193.5721,80.3655 193.5721,80.3655 C193.5721,80.3655 191.3471,78.1955 189.4631,75.9425 C187.8561,74.0245 185.5681,69.8185 185.5681,69.8185 C185.5681,69.8185 184.6621,70.9265 183.1691,76.2245 C181.7921,81.1105 181.5951,85.3485 181.6461,87.6265 C181.6761,88.8915 181.8691,90.0305 181.8691,90.0305 C181.8691,90.0305 183.1911,97.6915 184.9851,102.6235 C186.8931,107.8695 188.9061,111.8445 190.1791,113.7525 C191.1331,115.1835 192.0341,116.0845 192.0341,116.0845" id="Fill-21" fill="#6A6563"></path>
                <path d="M172.9189,94.9019 C172.9189,94.9019 173.2669,92.8899 174.8749,91.6889 C176.4829,90.4889 178.2899,90.2959 179.7349,90.5519 C181.1819,90.8089 181.4389,91.1959 181.4389,91.1959 C181.4389,91.1959 182.0179,96.7949 182.3789,98.7539 C182.7379,100.7139 183.7519,106.0959 185.0139,109.6089 C185.8189,111.8549 186.5829,113.5509 187.1969,114.5639 C187.9359,115.7799 188.9089,117.0879 188.9089,117.0879 C188.9089,117.0879 189.8409,118.6639 189.6459,120.2409 C189.4499,121.8169 188.9179,122.7939 187.8519,123.8509 C186.8829,124.8119 185.5759,125.1499 185.5759,125.1499 C185.5759,125.1499 183.5579,123.6039 182.0859,121.5469 C180.5539,119.4079 177.6889,113.8509 176.4629,110.0149 C175.2309,106.1639 174.1569,102.0189 173.6159,99.1599 C173.2209,97.0619 172.9189,94.9019 172.9189,94.9019" id="Fill-23" fill="#6A6563"></path>
                <path d="M176.6347,133.8892 C176.6347,133.8892 178.0837,133.9112 179.9467,132.4482 C181.8077,130.9842 181.8327,128.7882 181.7477,127.6502 C181.6707,126.6272 180.9817,125.2402 180.3057,124.0472 C179.6307,122.8532 177.1077,118.3562 176.0277,114.6922 C174.9467,111.0292 173.9247,106.8992 173.6617,105.0232 C173.3987,103.1462 173.2117,101.6372 173.2117,101.6372 C173.2117,101.6372 171.8827,100.8032 170.2837,100.8932 C168.6847,100.9832 167.3777,101.4552 166.2747,102.7182 C165.1707,103.9792 165.0577,104.8342 164.9467,105.2632 C164.8327,105.6912 164.8107,106.3892 164.8107,106.3892 C164.8107,106.3892 165.9817,111.7032 166.7477,114.1372 C167.5127,116.5692 169.2247,121.4792 170.7117,124.6102 C172.1977,127.7402 173.0507,129.3412 174.0447,130.8482 C174.7767,131.9562 174.8937,132.0742 175.3667,132.6452 C175.8397,133.2162 176.6347,133.8892 176.6347,133.8892" id="Fill-25" fill="#6A6563"></path>
                <path d="M170.4862,129.4966 C170.4862,129.4966 163.4742,136.8396 162.4982,137.8296 C161.5222,138.8206 160.0352,140.0826 157.1082,139.7446 C154.1802,139.4066 152.6712,136.4786 152.6262,134.6996 C152.5812,132.9206 152.6262,132.3116 154.2022,130.3526 C155.7792,128.3926 165.9142,117.9876 165.9142,117.9876 C165.9142,117.9876 166.2422,119.4636 166.9722,121.5686 C167.7532,123.8206 168.5122,125.5956 169.0002,126.5686 C169.4952,127.5596 170.4862,129.4966 170.4862,129.4966" id="Fill-27" fill="#6A6563"></path>
                <path d="M118.4071,45.0024 C118.2191,45.2094 117.9871,45.4684 117.7161,45.7784 C117.4421,46.0884 117.0951,46.3944 116.6721,46.6954 C116.2491,46.9964 115.7301,47.2554 115.1201,47.4714 C114.5081,47.6874 113.7801,47.7954 112.9321,47.7954 C111.9351,47.7954 111.0331,47.6074 110.2241,47.2314 C109.4161,46.8554 108.7291,46.3384 108.1651,45.6794 C107.6001,45.0214 107.1621,44.2454 106.8521,43.3514 C106.5431,42.4584 106.3861,41.5034 106.3861,40.4884 C106.3861,39.4724 106.5371,38.5134 106.8391,37.6104 C107.1391,36.7074 107.5761,35.9174 108.1511,35.2404 C108.7231,34.5624 109.4211,34.0264 110.2391,33.6314 C111.0561,33.2364 111.9821,33.0394 113.0171,33.0394 C113.7521,33.0394 114.3991,33.1334 114.9651,33.3214 C115.5281,33.5094 116.0261,33.7444 116.4601,34.0264 C116.8921,34.3094 117.2631,34.6244 117.5751,34.9724 C117.8851,35.3204 118.1521,35.6544 118.3791,35.9734 L120.2971,34.3374 C120.0341,33.9424 119.6901,33.5284 119.2671,33.0954 C118.8441,32.6634 118.3361,32.2634 117.7441,31.8964 C117.1501,31.5294 116.4601,31.2244 115.6701,30.9794 C114.8801,30.7354 113.9851,30.6124 112.9901,30.6124 C111.5791,30.6124 110.2951,30.8714 109.1371,31.3884 C107.9821,31.9064 106.9891,32.6164 106.1611,33.5194 C105.3341,34.4214 104.6901,35.4754 104.2291,36.6794 C103.7671,37.8834 103.5371,39.1714 103.5371,40.5444 C103.5371,41.9554 103.7671,43.2584 104.2291,44.4524 C104.6901,45.6474 105.3341,46.6814 106.1611,47.5554 C106.9891,48.4304 107.9761,49.1124 109.1241,49.6014 C110.2711,50.0904 111.5411,50.3354 112.9321,50.3354 C113.9111,50.3354 114.8041,50.2034 115.6141,49.9404 C116.4221,49.6764 117.1361,49.3524 117.7581,48.9664 C118.3791,48.5814 118.9051,48.1724 119.3381,47.7394 C119.7701,47.3064 120.0901,46.9214 120.2971,46.5824 L118.4071,45.0024 Z M135.5471,49.5874 C136.7221,49.0704 137.7431,48.3644 138.6081,47.4714 C139.4731,46.5784 140.1501,45.5294 140.6391,44.3254 C141.1291,43.1214 141.3741,41.8334 141.3741,40.4594 C141.3741,39.0874 141.1291,37.8034 140.6391,36.6084 C140.1501,35.4144 139.4731,34.3704 138.6081,33.4764 C137.7431,32.5834 136.7221,31.8784 135.5471,31.3604 C134.3721,30.8434 133.1061,30.5844 131.7531,30.5844 C130.3971,30.5844 129.1331,30.8434 127.9581,31.3604 C126.7821,31.8784 125.7651,32.5834 124.9101,33.4764 C124.0531,34.3704 123.3821,35.4144 122.8921,36.6084 C122.4031,37.8034 122.1591,39.0874 122.1591,40.4594 C122.1591,41.8334 122.4031,43.1214 122.8921,44.3254 C123.3821,45.5294 124.0581,46.5784 124.9251,47.4714 C125.7891,48.3644 126.8041,49.0704 127.9711,49.5874 C129.1371,50.1044 130.3971,50.3634 131.7531,50.3634 C133.1061,50.3634 134.3721,50.1044 135.5471,49.5874 L135.5471,49.5874 Z M128.9591,47.2314 C128.1311,46.8364 127.4221,46.3004 126.8291,45.6234 C126.2361,44.9464 125.7801,44.1604 125.4611,43.2674 C125.1401,42.3744 124.9801,41.4284 124.9801,40.4314 C124.9801,39.4154 125.1401,38.4614 125.4611,37.5674 C125.7801,36.6744 126.2361,35.8894 126.8291,35.2114 C127.4221,34.5344 128.1311,34.0034 128.9591,33.6174 C129.7871,33.2324 130.7181,33.0394 131.7531,33.0394 C132.7871,33.0394 133.7221,33.2324 134.5591,33.6174 C135.3961,34.0034 136.1111,34.5344 136.7041,35.2114 C137.2971,35.8894 137.7531,36.6744 138.0731,37.5674 C138.3911,38.4614 138.5521,39.4154 138.5521,40.4314 C138.5521,41.4284 138.3911,42.3744 138.0731,43.2674 C137.7531,44.1604 137.2971,44.9464 136.7041,45.6234 C136.1111,46.3004 135.3961,46.8364 134.5591,47.2314 C133.7221,47.6264 132.7871,47.8244 131.7531,47.8244 C130.7181,47.8244 129.7871,47.6264 128.9591,47.2314 L128.9591,47.2314 Z" id="Fill-29" fill="#231F20"></path>
            </g>
        </g>
    </g>
</svg>