<svg xmlns="http://www.w3.org/2000/svg" width="678.227" height="278.3" viewBox="0 0 678.227 278.3">
  <g id="ATS-Logo" transform="translate(-7956.689 13730.943)">
    <g id="ATS-logo-2" data-name="ATS-logo" transform="translate(7875 -13815)">
      <g id="Group_537" data-name="Group 537">
        <path id="Path_395" data-name="Path 395" d="M338.4,210.13h8.3a42.915,42.915,0,0,0,9.357-.938,19.142,19.142,0,0,0,6.836-2.923,13.174,13.174,0,0,0,4.294-5.03,17.532,17.532,0,0,0,1.542-7.772,17.709,17.709,0,0,0-1.472-7.776,10.466,10.466,0,0,0-4.013-4.438,18.768,18.768,0,0,0-6.816-2.335,61.7,61.7,0,0,0-9.582-.682c-2.289,0-4.33.046-6.07.139-.815.041-1.61.1-2.379.164Zm44.467,55.055a14.121,14.121,0,0,1-12.435-6.573l-22.346-33.635H338.55v38.93H321.056V164.954l2.008-.266c3.594-.48,7.515-.82,11.643-1.012s8.112-.29,11.851-.29c14.14,0,24.117,2.314,30.505,7.08,6.475,4.831,9.755,12.336,9.755,22.311a32.4,32.4,0,0,1-1.91,11.427,28.94,28.94,0,0,1-5.123,8.769,29.318,29.318,0,0,1-7.447,6.172,31.653,31.653,0,0,1-5.928,2.675l25.362,38.657,1.374,2.091-2.3,1.1a14.257,14.257,0,0,1-4.075,1.2,26.8,26.8,0,0,1-3.9.31" fill="#fff"/>
      </g>
      <g id="Group_538" data-name="Group 538">
        <path id="Path_396" data-name="Path 396" d="M427.155,266.038c-6.167,0-10.884-.933-14.425-2.845a19.6,19.6,0,0,1-7.9-7.4,23.45,23.45,0,0,1-3.013-9.621c-.3-3.225-.454-6.371-.454-9.363V191.946h3.212a4.121,4.121,0,0,0,.474-.047,9.226,9.226,0,0,1,1.3-.094,14.427,14.427,0,0,1,8.367,2.411c2.553,1.773,3.847,4.874,3.847,9.225v33.467a36.418,36.418,0,0,0,.75,8.316,5.921,5.921,0,0,0,2.4,3.671,10.613,10.613,0,0,0,3.974,1.781,25.448,25.448,0,0,0,5.462.514,21.506,21.506,0,0,0,6.57-.948,20.878,20.878,0,0,0,5.1-2.359,12.364,12.364,0,0,0,3.121-2.81,3.5,3.5,0,0,0,.894-1.9v-51.23h3.209a4.1,4.1,0,0,0,.477-.047,9.163,9.163,0,0,1,1.3-.094,14.141,14.141,0,0,1,8.4,2.5c2.533,1.818,3.815,4.931,3.815,9.257v60.346h-17.2V260.49a35.762,35.762,0,0,1-4.914,2.8c-3.85,1.827-8.815,2.752-14.757,2.752" fill="#fff"/>
      </g>
      <g id="Group_539" data-name="Group 539">
        <path id="Path_397" data-name="Path 397" d="M501.662,263.908h-17.2V192.372h3.359a2.94,2.94,0,0,0,.494-.041,7.774,7.774,0,0,1,1.127-.1A14.128,14.128,0,0,1,496.8,194.2a8.628,8.628,0,0,1,2.977,2.949,29,29,0,0,1,4.034-3.056,19.92,19.92,0,0,1,10.877-3,25.44,25.44,0,0,1,3.834.316,18.68,18.68,0,0,1,3.981,1.058,9.352,9.352,0,0,1,3.527,2.375,6.4,6.4,0,0,1,1.612,4.457,14.212,14.212,0,0,1-1.375,5.789,29.809,29.809,0,0,1-2.555,4.685l-1.506,2.188-2.01-1.779a12.734,12.734,0,0,0-12.186-2.309,11.962,11.962,0,0,0-3.4,1.776,8.836,8.836,0,0,0-2.233,2.428,4.541,4.541,0,0,0-.719,2.427v49.406Z" fill="#fff"/>
      </g>
      <g id="Group_540" data-name="Group 540">
        <path id="Path_398" data-name="Path 398" d="M576.556,230.233a80.575,80.575,0,0,0-9.273.554,32.969,32.969,0,0,0-8.212,1.979,14.724,14.724,0,0,0-5.591,3.731,8.339,8.339,0,0,0-1.928,5.851A9.413,9.413,0,0,0,553.7,248.5c1.287,1.6,3.983,2.4,8.013,2.4a22.2,22.2,0,0,0,6.559-.958,25.846,25.846,0,0,0,5.588-2.4,13.884,13.884,0,0,0,3.595-2.9,3.6,3.6,0,0,0,1.032-2.151V230.234h-1.935Zm-17.808,34.95a38.9,38.9,0,0,1-8.241-.907,21.237,21.237,0,0,1-7.939-3.513,19.988,19.988,0,0,1-5.894-6.877,22.836,22.836,0,0,1-2.32-10.832c0-5.423,1.484-9.952,4.406-13.471a30.154,30.154,0,0,1,10.429-8,46.888,46.888,0,0,1,12.946-3.9,102.144,102.144,0,0,1,12.289-1.163h3.152c.263,0,.518,0,.769.007-.038-3.541-.9-6.225-2.566-7.979-1.623-1.709-5.242-2.61-10.461-2.61a31.482,31.482,0,0,0-10.411,1.492,38.861,38.861,0,0,0-8.351,4.221l-.594.4h-3.5l-.682-1.061a23.758,23.758,0,0,1-2.2-4.387,12.134,12.134,0,0,1-.955-4.175c0-1.987,1.12-3.768,3.33-5.3a27.33,27.33,0,0,1,6.71-3.208,52.107,52.107,0,0,1,8.747-2.084,60.948,60.948,0,0,1,9.374-.742,45.516,45.516,0,0,1,13.275,1.673,21.942,21.942,0,0,1,9.143,5.262,19.4,19.4,0,0,1,4.98,8.808,43.744,43.744,0,0,1,1.347,11.357v27.988a34.749,34.749,0,0,0,.271,5,3.442,3.442,0,0,0,.579,1.722,1.509,1.509,0,0,0,.918.471,16.724,16.724,0,0,0,3.14.234h2.327v9.54l-1.6.509a23.846,23.846,0,0,1-3.622.794,29.827,29.827,0,0,1-4.337.31,19.856,19.856,0,0,1-9.172-2.04,9.2,9.2,0,0,1-4.165-4.251,37.966,37.966,0,0,1-6.556,3.99c-3.743,1.808-8.646,2.725-14.575,2.725" fill="#fff"/>
      </g>
      <g id="Group_541" data-name="Group 541">
        <path id="Path_399" data-name="Path 399" d="M630.412,264.76a15.753,15.753,0,0,1-7.74-1.587,10.423,10.423,0,0,1-4.3-4.348,14.568,14.568,0,0,1-1.568-5.57c-.15-1.82-.229-3.624-.229-5.366V158.7h3.211a3.781,3.781,0,0,0,.475-.049,10.061,10.061,0,0,1,1.295-.092,14.131,14.131,0,0,1,8.4,2.5c2.536,1.817,3.82,4.934,3.82,9.257v78c0,1.352.043,2.5.136,3.408a3.242,3.242,0,0,0,.449,1.489,1.647,1.647,0,0,0,.916.6,10.11,10.11,0,0,0,3.256.36h2.325v8.962l-1.586.512a22.914,22.914,0,0,1-4.054.806,38.615,38.615,0,0,1-4.8.306" fill="#fff"/>
      </g>
      <g id="Group_542" data-name="Group 542">
        <path id="Path_400" data-name="Path 400" d="M660.083,118.647s-4.94-17.942-5.653-20.987a11.322,11.322,0,0,1,3.861-11.078,11.009,11.009,0,0,1,9.3-2.288c1.5.31,6.648,1.716,8.347,7.165,1.912,6.141,10.027,37.029,10.027,37.029s13.027,4.144,16.477,5.841c4.468,2.2,5.988,4.776,6.641,7.008a10.609,10.609,0,0,1,.51,4.312,8.005,8.005,0,0,1-.449,2.33,53.333,53.333,0,0,1-8.75-.163c-5.146-.482-21.513-3.226-25.177-3.811s-21.856-4.378-21.856-4.378A11.561,11.561,0,0,1,648.2,132.4a11.044,11.044,0,0,1,3.173-10.589,10.683,10.683,0,0,1,4.924-2.779,13.926,13.926,0,0,1,3.781-.387" fill="#fff"/>
      </g>
      <g id="Group_543" data-name="Group 543">
        <path id="Path_401" data-name="Path 401" d="M658.482,142.63a11.93,11.93,0,0,0-3.563,3.38,9.846,9.846,0,0,0-1.561,7.406,11.1,11.1,0,0,0,2.28,5.587,9.565,9.565,0,0,0,2.884,2.481s19.866,4.575,29.206,6.142,16.78,2.606,20.229,2.958,8.646.292,8.646.292.822-1.107.926-4.1a11.914,11.914,0,0,0-2.367-7.1c-1.578-2.107-5.25-3.854-5.25-3.854s-16.72-3.975-22.245-5.238c-6.712-1.537-17.407-4.312-18.918-4.852-2.522-.9-10.267-3.1-10.267-3.1" fill="#fff"/>
      </g>
      <g id="Group_544" data-name="Group 544">
        <path id="Path_402" data-name="Path 402" d="M665.427,164.555a14.144,14.144,0,0,0-3.422,4.636,12.133,12.133,0,0,0-.06,8.248,9.814,9.814,0,0,0,3.122,4.4s21.861,7.135,30.67,9.754,22.474,6.493,29.109,9.012c8.267,3.139,14.286,6.2,17.655,10.783,5.257,7.154,5.474,14.454,4.607,20.442-1.424,9.833-4.335,13.922-4.335,13.922s3.872-.956,8.734-6.2c5.477-5.9,9.24-12.824,8.251-22.036s-4.4-16.909-18.141-26.374c-12.2-8.4-28.463-12.969-35.146-14.992S684.117,171.3,675,168.179c-6.8-2.33-9.575-3.624-9.575-3.624" fill="#fff"/>
      </g>
      <g id="Group_545" data-name="Group 545">
        <path id="Path_403" data-name="Path 403" d="M681.174,191.469A153.193,153.193,0,0,0,693.948,219.5c6.05,10.024,11.249,16.857,15.732,20.771a50.037,50.037,0,0,0,4.894,3.867,86.308,86.308,0,0,0,5.778-9.656,36.266,36.266,0,0,0,2.729-8.288c.212-1.457.085-2.243-2.407-6.036-2.791-4.246-4.255-5.875-7.385-11.589-2.719-4.963-3.833-7.4-3.833-7.4s-6.4-2.213-14.547-4.816-13.735-4.877-13.735-4.877" fill="#fff"/>
      </g>
      <g id="Group_535" data-name="Group 535">
        <path id="Path_404" data-name="Path 404" d="M705.029,314.8s5.192-2.763,5.935-7.331,0-5.631-1.484-9.563a18.552,18.552,0,0,1-1.377-6.588s19.731-24.874,24.053-32.2c5.532-9.371,10.107-17.08,11.472-26.093,1.272-8.411-.081-15.772-4.688-20.765-4.7-5.091-9.362-6.382-15.154-6.7a55.653,55.653,0,0,0-8.889.179s2.733,4.771,4.863,8.128c2.358,3.719,5.974,9.4,6.292,10.784s-.321,4.168-1.687,7.613-2.551,5.987-6.42,11.943c-4.238,6.525-11.325,12.462-11.325,12.462s.735-7.153,1.295-11.369a11.8,11.8,0,0,0,.192-2.124s-4.448-4.353-8.219-8.869c-3.21-3.846-7.784-12.28-7.784-12.28s-1.814,2.221-4.8,12.845a80.507,80.507,0,0,0-3.045,22.859,38.251,38.251,0,0,0,.445,4.824s2.646,15.357,6.231,25.247c3.814,10.52,7.842,18.487,10.386,22.313a33.488,33.488,0,0,0,3.707,4.675" fill="#fff"/>
      </g>
      <g id="Group_546" data-name="Group 546">
        <path id="Path_405" data-name="Path 405" d="M666.81,272.334a11.255,11.255,0,0,1,3.91-6.444,12.439,12.439,0,0,1,9.72-2.278c2.891.516,3.405,1.289,3.405,1.289s1.158,11.226,1.878,15.154,2.747,14.721,5.27,21.767a59.1,59.1,0,0,0,4.369,9.935c1.475,2.436,3.423,5.059,3.423,5.059a11.548,11.548,0,0,1,1.47,6.32,11.139,11.139,0,0,1-3.587,7.241,11.256,11.256,0,0,1-4.548,2.6,38.832,38.832,0,0,1-6.981-7.226c-3.063-4.288-8.792-15.428-11.243-23.12a201.435,201.435,0,0,1-5.689-21.766c-.794-4.2-1.4-8.535-1.4-8.535" fill="#fff"/>
      </g>
      <g id="Group_536" data-name="Group 536">
        <path id="Path_406" data-name="Path 406" d="M674.239,350.5s2.9.045,6.62-2.891,3.772-7.337,3.6-9.619c-.151-2.049-1.528-4.831-2.881-7.226s-6.4-11.41-8.557-18.755a176,176,0,0,1-4.729-19.388c-.524-3.764-.9-6.789-.9-6.789a11.056,11.056,0,0,0-5.855-1.491A10.637,10.637,0,0,0,653.524,288a10.306,10.306,0,0,0-2.656,5.1,12.962,12.962,0,0,0-.271,2.259s2.342,10.656,3.873,15.534a195.716,195.716,0,0,0,7.927,21,98.057,98.057,0,0,0,6.665,12.509,28.447,28.447,0,0,0,2.643,3.6,25.11,25.11,0,0,0,2.534,2.5" fill="#fff"/>
      </g>
      <g id="Group_547" data-name="Group 547">
        <path id="Path_407" data-name="Path 407" d="M661.945,341.7s-14.021,14.721-15.972,16.707a11.809,11.809,0,0,1-10.779,3.841c-5.854-.679-8.871-6.55-8.961-10.117s0-4.786,3.151-8.715S652.8,318.62,652.8,318.62a72.592,72.592,0,0,0,2.116,7.18,90.552,90.552,0,0,0,4.055,10.027c.991,1.984,2.972,5.87,2.972,5.87" fill="#fff"/>
      </g>
      <g id="Group_548" data-name="Group 548">
        <path id="Path_408" data-name="Path 408" d="M578.911,176.751a13.107,13.107,0,0,1-4.26-3.224,14.535,14.535,0,0,1-2.736-4.724,16.776,16.776,0,0,1-.959-5.686,16.946,16.946,0,0,1,.959-5.743,14.57,14.57,0,0,1,2.736-4.724,12.759,12.759,0,0,1,4.26-3.2,13.053,13.053,0,0,1,5.586-1.16,13.227,13.227,0,0,1,5.612,1.16,12.656,12.656,0,0,1,4.288,3.2,14.514,14.514,0,0,1,2.735,4.724,17.487,17.487,0,0,1,0,11.429,14.55,14.55,0,0,1-2.735,4.724,12.835,12.835,0,0,1-9.9,4.413,12.773,12.773,0,0,1-5.586-1.189m13.174,4.724a19.164,19.164,0,0,0,6.119-4.242,19.55,19.55,0,0,0,4.063-6.309,21.131,21.131,0,0,0,0-15.472,19.61,19.61,0,0,0-4.063-6.279,19.194,19.194,0,0,0-6.119-4.243,19.282,19.282,0,0,0-15.177,0,18.878,18.878,0,0,0-6.094,4.243,19.841,19.841,0,0,0-4.032,6.279,21.117,21.117,0,0,0,0,15.472,19.528,19.528,0,0,0,4.061,6.309,19.268,19.268,0,0,0,6.094,4.242,18.4,18.4,0,0,0,7.561,1.556,18.589,18.589,0,0,0,7.587-1.556m-34.273-9.193q-.564.622-1.382,1.556a12.091,12.091,0,0,1-2.087,1.838,12.579,12.579,0,0,1-3.1,1.557,13.132,13.132,0,0,1-4.372.649,12.649,12.649,0,0,1-5.416-1.131,12.032,12.032,0,0,1-4.118-3.11,14.323,14.323,0,0,1-2.624-4.667,17.409,17.409,0,0,1-.93-5.742,18.179,18.179,0,0,1,.9-5.771,14.222,14.222,0,0,1,2.624-4.751,12.354,12.354,0,0,1,9.732-4.413,12.247,12.247,0,0,1,3.894.566,12.948,12.948,0,0,1,2.99,1.414,11.06,11.06,0,0,1,2.227,1.9,22.726,22.726,0,0,1,1.609,2.008l3.836-3.281a17.667,17.667,0,0,0-2.06-2.49,16.094,16.094,0,0,0-3.045-2.4,17.9,17.9,0,0,0-4.147-1.839,18.108,18.108,0,0,0-5.359-.735,18.626,18.626,0,0,0-7.7,1.555,17.894,17.894,0,0,0-5.952,4.271,19.686,19.686,0,0,0-3.865,6.336,22.662,22.662,0,0,0,0,15.586,18.749,18.749,0,0,0,3.865,6.223,17.52,17.52,0,0,0,5.923,4.1,19.211,19.211,0,0,0,7.616,1.47,17.161,17.161,0,0,0,5.359-.792,19.572,19.572,0,0,0,4.288-1.951,17.4,17.4,0,0,0,3.159-2.462,13.193,13.193,0,0,0,1.918-2.318Z" fill="#fff"/>
      </g>
      <g id="Group_549" data-name="Group 549">
        <path id="Path_409" data-name="Path 409" d="M578.625,327.945h15.938v-3.1H582.071v-7.775h8.759v-3.1h-8.759v-6.984H593.7v-3.061H578.625Zm-18.2-12.744v-8.279h4.523a4.856,4.856,0,0,1,3.375,1.1,3.932,3.932,0,0,1,1.222,3.078,4,4,0,0,1-1.133,2.987,4.648,4.648,0,0,1-3.392,1.115Zm-3.338,12.744h3.338v-9.827h4.811l5.135,9.827h3.876l-5.6-10.26a6.441,6.441,0,0,0,3.339-2.627,7.647,7.647,0,0,0,1.076-4.069,7.55,7.55,0,0,0-.448-2.555,6.068,6.068,0,0,0-1.436-2.252,7.518,7.518,0,0,0-2.567-1.618,10.476,10.476,0,0,0-3.876-.631h-7.647v24.012Zm-24.7-9.144a12.457,12.457,0,0,0,.574,3.834,8.4,8.4,0,0,0,1.759,3.1,8.246,8.246,0,0,0,2.98,2.069,12.243,12.243,0,0,0,8.471,0,8.069,8.069,0,0,0,2.961-2.069,8.58,8.58,0,0,0,1.742-3.1,12.486,12.486,0,0,0,.573-3.834V303.933H548v14.04a14.469,14.469,0,0,1-.286,2.97,6.1,6.1,0,0,1-.988,2.321,4.529,4.529,0,0,1-1.867,1.495,7.19,7.19,0,0,1-2.925.521,7.316,7.316,0,0,1-2.962-.521,4.526,4.526,0,0,1-1.866-1.495,6.031,6.031,0,0,1-.986-2.321,14.254,14.254,0,0,1-.287-2.97v-14.04h-3.447V318.8Zm-15.759,9.144h3.446V306.959h8.544v-3.025h-20.57v3.025h8.58Zm-21.181,0h15.9v-3.06H498.9V303.933h-3.447v24.012Zm-24.7-9.144a12.426,12.426,0,0,0,.574,3.834,8.4,8.4,0,0,0,1.759,3.1,8.246,8.246,0,0,0,2.98,2.069,12.242,12.242,0,0,0,8.471,0,8.082,8.082,0,0,0,2.962-2.069,8.561,8.561,0,0,0,1.74-3.1,12.426,12.426,0,0,0,.575-3.834V303.933h-3.447v14.04a14.331,14.331,0,0,1-.287,2.97,6.094,6.094,0,0,1-.987,2.321,4.535,4.535,0,0,1-1.865,1.495,7.2,7.2,0,0,1-2.927.521,7.316,7.316,0,0,1-2.962-.521,4.532,4.532,0,0,1-1.866-1.495,6.063,6.063,0,0,1-.987-2.321,14.259,14.259,0,0,1-.286-2.97v-14.04h-3.447V318.8Zm-6.5,2.916q-.359.4-.879.989a7.846,7.846,0,0,1-1.328,1.171,7.949,7.949,0,0,1-1.975.99,8.371,8.371,0,0,1-2.782.413,8.038,8.038,0,0,1-3.445-.721,7.649,7.649,0,0,1-2.62-1.979,9.078,9.078,0,0,1-1.67-2.97,11.058,11.058,0,0,1-.592-3.654,11.53,11.53,0,0,1,.573-3.671,9.055,9.055,0,0,1,1.67-3.023,7.853,7.853,0,0,1,6.191-2.808,7.874,7.874,0,0,1,2.478.358,8.23,8.23,0,0,1,1.9.9,6.931,6.931,0,0,1,1.418,1.2,14.357,14.357,0,0,1,1.023,1.277l2.44-2.088a11.1,11.1,0,0,0-1.31-1.583,10.2,10.2,0,0,0-1.939-1.53,11.295,11.295,0,0,0-6.048-1.638,11.87,11.87,0,0,0-4.9.989,11.407,11.407,0,0,0-3.787,2.719,12.512,12.512,0,0,0-2.459,4.032,14.425,14.425,0,0,0,0,9.917,11.941,11.941,0,0,0,2.459,3.96,11.156,11.156,0,0,0,3.77,2.609,12.22,12.22,0,0,0,4.846.937,10.945,10.945,0,0,0,3.41-.5,12.484,12.484,0,0,0,2.729-1.243,11.208,11.208,0,0,0,2.011-1.565,8.4,8.4,0,0,0,1.22-1.476Zm-27.175,6.228h3.447V303.933h-3.447Zm-18.2-12.744v-8.279H423.4a4.857,4.857,0,0,1,3.374,1.1A3.931,3.931,0,0,1,428,311.1a4.006,4.006,0,0,1-1.131,2.987,4.652,4.652,0,0,1-3.393,1.115Zm-3.339,12.744h3.339v-9.827h4.811l5.133,9.827H432.7l-5.6-10.26a6.442,6.442,0,0,0,3.338-2.627,7.923,7.923,0,0,0,.628-6.624,6.018,6.018,0,0,0-1.436-2.252,7.5,7.5,0,0,0-2.566-1.618,10.48,10.48,0,0,0-3.878-.631H415.54Zm-14-9.216h5.1v4.9a7.8,7.8,0,0,1-2.495,1.3,11.612,11.612,0,0,1-3.536.468,8.346,8.346,0,0,1-6.228-2.646,8.757,8.757,0,0,1-1.814-2.969,10.837,10.837,0,0,1-.645-3.816,11.365,11.365,0,0,1,.592-3.688,9.264,9.264,0,0,1,1.687-3.043,7.931,7.931,0,0,1,2.675-2.051,8.124,8.124,0,0,1,3.554-.757,7.561,7.561,0,0,1,2.422.36,8.33,8.33,0,0,1,1.885.9,7.56,7.56,0,0,1,1.436,1.207,13.028,13.028,0,0,1,1.041,1.277l2.441-2.089a14.715,14.715,0,0,0-1.328-1.583,9.691,9.691,0,0,0-1.921-1.529,10.8,10.8,0,0,0-2.639-1.152,12.838,12.838,0,0,0-8.311.539,11.546,11.546,0,0,0-3.787,2.7,12.3,12.3,0,0,0-2.459,4.013,13.72,13.72,0,0,0-.879,4.933,14.29,14.29,0,0,0,.843,4.984,11.209,11.209,0,0,0,6.282,6.589,12.791,12.791,0,0,0,5.044.954,17.49,17.49,0,0,0,3.231-.271,14.738,14.738,0,0,0,2.6-.721,10.8,10.8,0,0,0,2.045-1.026,12.745,12.745,0,0,0,1.562-1.188v-9.574h-8.4v2.988Zm-30.873-.4,3.914-10.548,3.876,10.548Zm-7.107,9.612h3.625l2.477-6.7H379.5l2.477,6.7h3.841l-9.369-24.012h-3.518Zm-30.3,0h3.447V317.074h13.1v10.871h3.447V303.933H349.81v10.045h-13.1V303.933h-3.447Zm-15.938,0h3.446V306.959h8.543v-3.025h-20.57v3.025h8.58v20.986Zm-15.975,0h3.446V303.933h-3.446Zm-27.6,0h3.626L282.5,310.2l4.991,17.748h3.661l6.426-24.012h-3.59l-4.6,19.331-5.1-18.609h-3.339l-5.2,18.646-4.6-19.367h-3.8Zm-33.709-3.1V307.031h4.344q4.774,0,7.179,2.32t2.406,6.714q0,4.355-2.494,6.57a10.167,10.167,0,0,1-6.982,2.214Zm-3.446,3.1h7.97a18.212,18.212,0,0,0,5.241-.721,11.025,11.025,0,0,0,4.128-2.214,10.211,10.211,0,0,0,2.692-3.744,13.246,13.246,0,0,0,.969-5.272,13.678,13.678,0,0,0-.969-5.4,10.2,10.2,0,0,0-2.692-3.763,10.836,10.836,0,0,0-4.111-2.2,18.493,18.493,0,0,0-5.224-.7h-8v24.011Zm-20.606,0h15.939v-3.1H219.427v-7.775h8.759v-3.1h-8.759v-6.984h11.631v-3.061H215.981v24.012Zm-22.651-3.6a9.677,9.677,0,0,0,1.383,1.459,10.869,10.869,0,0,0,1.975,1.349,12.438,12.438,0,0,0,2.513,1.009,11.146,11.146,0,0,0,3.068.4,10.385,10.385,0,0,0,3.338-.521,8.181,8.181,0,0,0,2.675-1.478,7,7,0,0,0,1.777-2.249,6.282,6.282,0,0,0,.646-2.845,7.37,7.37,0,0,0-.593-3.113,6.42,6.42,0,0,0-1.6-2.159,8.009,8.009,0,0,0-2.28-1.4,18.415,18.415,0,0,0-2.6-.847q-1.365-.324-2.424-.666a7.029,7.029,0,0,1-1.777-.827,3.612,3.612,0,0,1-1.1-1.116,2.934,2.934,0,0,1-.376-1.53,3.207,3.207,0,0,1,.25-1.223,3.008,3.008,0,0,1,.79-1.1,4.164,4.164,0,0,1,1.365-.792,5.685,5.685,0,0,1,1.974-.306,6.952,6.952,0,0,1,2.028.269,7.147,7.147,0,0,1,1.543.666,6,6,0,0,1,1.1.812q.431.412.646.666l2.3-2.124c-.193-.241-.467-.553-.827-.937a6.629,6.629,0,0,0-1.436-1.116,9.35,9.35,0,0,0-2.171-.917,10.717,10.717,0,0,0-3.034-.379,10.305,10.305,0,0,0-3.482.541,7.541,7.541,0,0,0-2.513,1.438,5.841,5.841,0,0,0-1.507,2.088,6.4,6.4,0,0,0-.5,2.52,6.292,6.292,0,0,0,.5,2.574,6.117,6.117,0,0,0,1.418,2,7.933,7.933,0,0,0,2.171,1.439,13.153,13.153,0,0,0,2.8.9,13.073,13.073,0,0,1,4.343,1.6,3.313,3.313,0,0,1,1.508,2.969,3.566,3.566,0,0,1-1.329,2.917,5.713,5.713,0,0,1-3.7,1.079,7.4,7.4,0,0,1-2.117-.288,7.759,7.759,0,0,1-1.76-.756,7.871,7.871,0,0,1-1.417-1.062q-.629-.594-1.13-1.17Zm-20.893,0a9.768,9.768,0,0,0,1.382,1.459,10.869,10.869,0,0,0,1.975,1.349,12.509,12.509,0,0,0,2.513,1.009,11.164,11.164,0,0,0,3.069.4,10.387,10.387,0,0,0,3.339-.521,8.166,8.166,0,0,0,2.674-1.478,7,7,0,0,0,1.777-2.249,6.3,6.3,0,0,0,.646-2.845,7.386,7.386,0,0,0-.592-3.113,6.431,6.431,0,0,0-1.6-2.159,8.023,8.023,0,0,0-2.28-1.4,18.512,18.512,0,0,0-2.6-.847q-1.363-.324-2.422-.666a7.037,7.037,0,0,1-1.778-.827,3.608,3.608,0,0,1-1.094-1.116,2.934,2.934,0,0,1-.377-1.53,3.209,3.209,0,0,1,.251-1.223,3.008,3.008,0,0,1,.79-1.1,4.187,4.187,0,0,1,1.364-.792,5.687,5.687,0,0,1,1.975-.306,6.956,6.956,0,0,1,2.028.269,7.147,7.147,0,0,1,1.543.666,6.07,6.07,0,0,1,1.1.812,9.074,9.074,0,0,1,.646.666l2.3-2.124q-.286-.361-.825-.937a6.637,6.637,0,0,0-1.437-1.116,9.341,9.341,0,0,0-2.172-.917,10.7,10.7,0,0,0-3.033-.379,10.305,10.305,0,0,0-3.482.541A7.531,7.531,0,0,0,175.6,305.3a5.856,5.856,0,0,0-1.508,2.088,6.4,6.4,0,0,0-.5,2.52,6.292,6.292,0,0,0,.5,2.574,6.147,6.147,0,0,0,1.418,2,7.933,7.933,0,0,0,2.171,1.439,13.153,13.153,0,0,0,2.8.9,13.071,13.071,0,0,1,4.344,1.6,3.316,3.316,0,0,1,1.508,2.969A3.563,3.563,0,0,1,185,324.309a5.71,5.71,0,0,1-3.7,1.079,7.412,7.412,0,0,1-2.119-.288,7.724,7.724,0,0,1-1.758-.756,7.958,7.958,0,0,1-1.419-1.062q-.627-.594-1.13-1.17Zm-18.667,3.6h15.938v-3.1H157.217v-7.775h8.759v-3.1h-8.759v-6.984h11.631v-3.061H153.771Zm-22.651-3.6A9.717,9.717,0,0,0,132.5,325.8a10.93,10.93,0,0,0,1.974,1.349,12.471,12.471,0,0,0,2.514,1.009,11.159,11.159,0,0,0,3.069.4,10.385,10.385,0,0,0,3.338-.521,8.155,8.155,0,0,0,2.674-1.478,7,7,0,0,0,1.777-2.249,6.282,6.282,0,0,0,.646-2.845,7.371,7.371,0,0,0-.592-3.113,6.416,6.416,0,0,0-1.6-2.159,8.009,8.009,0,0,0-2.28-1.4,18.559,18.559,0,0,0-2.6-.847q-1.363-.324-2.422-.666a7.021,7.021,0,0,1-1.776-.827,3.6,3.6,0,0,1-1.1-1.116,2.934,2.934,0,0,1-.377-1.53,3.192,3.192,0,0,1,.252-1.223,3,3,0,0,1,.79-1.1,4.187,4.187,0,0,1,1.364-.792,5.692,5.692,0,0,1,1.975-.306,6.961,6.961,0,0,1,2.028.269,7.147,7.147,0,0,1,1.543.666,6.034,6.034,0,0,1,1.1.812q.431.412.646.666l2.3-2.124q-.286-.361-.825-.937a6.654,6.654,0,0,0-1.436-1.116,9.387,9.387,0,0,0-2.171-.917,10.715,10.715,0,0,0-3.035-.379,10.3,10.3,0,0,0-3.481.541,7.521,7.521,0,0,0-2.513,1.438,5.853,5.853,0,0,0-1.507,2.088,6.4,6.4,0,0,0-.5,2.52,6.292,6.292,0,0,0,.5,2.574,6.144,6.144,0,0,0,1.417,2,7.948,7.948,0,0,0,2.171,1.439,13.181,13.181,0,0,0,2.8.9,13.082,13.082,0,0,1,4.343,1.6,3.314,3.314,0,0,1,1.507,2.969,3.565,3.565,0,0,1-1.328,2.917,5.711,5.711,0,0,1-3.7,1.079,7.409,7.409,0,0,1-2.118-.288,7.759,7.759,0,0,1-1.76-.756,7.906,7.906,0,0,1-1.417-1.062q-.629-.594-1.131-1.17Zm-16.8.612v-8.062h4.38a11.43,11.43,0,0,1,1.866.161,5.253,5.253,0,0,1,1.777.631,3.931,3.931,0,0,1,1.328,1.26,3.749,3.749,0,0,1,.52,2.088,3.7,3.7,0,0,1-.538,2.142,3.431,3.431,0,0,1-1.382,1.17,5.736,5.736,0,0,1-1.849.505,18.427,18.427,0,0,1-1.939.106h-4.163Zm0-11.015v-7.02h4.272a10.013,10.013,0,0,1,1.579.127,4.065,4.065,0,0,1,1.436.5,2.886,2.886,0,0,1,1.041,1.044,3.389,3.389,0,0,1,.395,1.746,3.257,3.257,0,0,1-.395,1.655,3.314,3.314,0,0,1-1.041,1.116,4.517,4.517,0,0,1-1.436.629,6.476,6.476,0,0,1-1.579.2h-4.272Zm-3.338,14h7.683a18.242,18.242,0,0,0,3.517-.325,7.874,7.874,0,0,0,2.854-1.116,5.724,5.724,0,0,0,1.9-2.069,6.643,6.643,0,0,0,.7-3.221,6.126,6.126,0,0,0-.539-2.718,5.454,5.454,0,0,0-3.033-2.808,8.13,8.13,0,0,0-1.669-.449,3.567,3.567,0,0,0,1.274-.468,5.268,5.268,0,0,0,1.292-1.045,5.873,5.873,0,0,0,1.006-1.583,5.143,5.143,0,0,0,.412-2.088,6.317,6.317,0,0,0-.449-2.377,5.311,5.311,0,0,0-1.346-1.943,6.513,6.513,0,0,0-2.261-1.314,9.671,9.671,0,0,0-3.231-.486h-8.113v24.01ZM90.34,324.56a8.309,8.309,0,0,1-2.711-2.052,9.247,9.247,0,0,1-1.741-3.005,11.141,11.141,0,0,1,0-7.272,9.262,9.262,0,0,1,1.741-3.006,8.08,8.08,0,0,1,2.711-2.033,8.293,8.293,0,0,1,3.553-.737,8.415,8.415,0,0,1,3.572.737,8.047,8.047,0,0,1,2.728,2.033,9.262,9.262,0,0,1,1.741,3.006,11.124,11.124,0,0,1,0,7.272,9.247,9.247,0,0,1-1.741,3.005,8.16,8.16,0,0,1-6.3,2.808,8.112,8.112,0,0,1-3.553-.756m8.382,3.007a12.229,12.229,0,0,0,3.9-2.7,12.491,12.491,0,0,0,2.585-4.015,13.033,13.033,0,0,0,.933-4.932,12.9,12.9,0,0,0-.933-4.913,12.542,12.542,0,0,0-2.585-4,12.229,12.229,0,0,0-3.9-2.7,12.268,12.268,0,0,0-9.656,0,12.014,12.014,0,0,0-3.878,2.7,12.646,12.646,0,0,0-2.566,4,12.876,12.876,0,0,0-.933,4.913,13.014,13.014,0,0,0,.933,4.932,12.456,12.456,0,0,0,2.584,4.015,12.247,12.247,0,0,0,3.878,2.7,11.691,11.691,0,0,0,4.809.989,11.823,11.823,0,0,0,4.829-.989" fill="#fff"/>
      </g>
    </g>
  </g>
</svg>
