<?xml version="1.0" encoding="UTF-8"?>
<svg width="27px" height="27px" viewBox="0 0 27 27" version="1.1" xmlns="http://www.w3.org/2000/svg" xmlns:xlink="http://www.w3.org/1999/xlink">
    <!-- Generator: sketchtool 46.2 (44496) - http://www.bohemiancoding.com/sketch -->
    <title>AB91D845-77B1-4DC9-9B3D-D94425339C7A</title>
    <desc>Created with sketchtool.</desc>
    <defs></defs>
    <g id="Symbols" stroke="none" stroke-width="1" fill="none" fill-rule="evenodd">
        <g id="Contact" transform="translate(-421.000000, -125.000000)" fill-rule="nonzero" fill="#FFFFFF">
            <g id="Details" transform="translate(120.000000, 125.000000)">
                <g id="ico_mail" transform="translate(301.000000, 0.000000)">
                    <path d="M13.5626385,2.9975647e-15 L13.5000165,2.9975647e-15 C9.90921031,2.9975647e-15 6.46496074,1.4303915 3.93207066,3.97645967 C1.39757749,6.52252784 -0.0163522846,9.97165035 0.000142719072,13.5626055 C0.0331010864,20.9714816 6.24757262,27 13.8491959,27 L14.343582,27 C15.2762879,27 16.0310504,26.2452329 16.0310504,25.3125211 C16.0310504,24.3798093 15.2762879,23.6250422 14.343582,23.6250422 L13.8491959,23.6250422 C8.09956919,23.6250422 3.39954782,19.1030206 3.37507953,13.5461525 C3.36354399,10.8534425 4.42481144,8.26603105 6.32485867,6.3562268 C8.22490591,4.44794128 10.8071966,3.37512656 13.4999743,3.37512656 L13.5461182,3.37512656 C19.1029516,3.3998456 23.6249451,8.09964563 23.6249451,13.8493081 L23.6249451,17.7186551 C23.6249451,18.6513669 22.8701826,19.406134 21.9374767,19.406134 C21.0047707,19.406134 20.2500083,18.6513669 20.2500083,17.7186551 L20.2500083,13.4999578 C20.2565999,11.4812268 19.3617671,9.56471482 17.8111102,8.27257003 C16.2587658,6.98223928 14.2120776,6.44996625 12.228121,6.82239285 C10.2441644,7.19481944 8.53020269,8.43406176 7.55298974,10.2006412 C6.57742207,11.9672207 6.43900747,14.0782146 7.17891174,15.9570537 C7.91717917,17.8356817 9.4563191,19.2858589 11.3761519,19.9137276 C13.2943394,20.5399511 15.3921158,20.2779193 17.099201,19.2001772 C17.8341779,21.5929801 20.2104709,23.0893098 22.6855652,22.7184863 C25.1623891,22.3477008 26.9966251,20.2218613 27,17.7184863 L27,13.8491394 C27,6.24704691 20.971941,0.0329058387 13.5626891,0 L13.5626385,2.9975647e-15 Z M13.5000165,16.8747891 C12.1355296,16.8747891 10.9045636,16.0524806 10.3821655,14.7918073 C9.85976749,13.5294887 10.1481601,12.0793115 11.1138518,11.1136095 C12.0795436,10.1479075 13.529716,9.85951738 14.7920267,10.3819187 C16.0526922,10.9043199 16.8749955,12.1352936 16.8749955,13.4997891 C16.8749955,14.3946169 16.5190451,15.253164 15.8862234,15.8859686 C15.2534017,16.5187732 14.3948388,16.8747469 13.5000587,16.8747469 L13.5000165,16.8747891 Z" id="Shape"></path>
                </g>
            </g>
        </g>
    </g>
</svg>