<?xml version="1.0" encoding="UTF-8"?>
<svg width="21px" height="29px" viewBox="0 0 21 29" version="1.1" xmlns="http://www.w3.org/2000/svg" xmlns:xlink="http://www.w3.org/1999/xlink">
    <!-- Generator: sketchtool 46.2 (44496) - http://www.bohemiancoding.com/sketch -->
    <title>0E24B170-3509-48E8-A285-DE744598D37B</title>
    <desc>Created with sketchtool.</desc>
    <defs></defs>
    <g id="Symbols" stroke="none" stroke-width="1" fill="none" fill-rule="evenodd">
        <g id="Contact" transform="translate(-120.000000, -125.000000)" fill-rule="nonzero" fill="#FFFFFF">
            <g id="Details" transform="translate(120.000000, 125.000000)">
                <g id="ico_phone">
                    <path d="M6.20458937,0 C6.20458937,0 -0.08113,0.0837535096 0.000793904567,5.82212351 C0.0827638015,11.5616699 1.22582936,16.6365426 3.10326654,19.4638683 C4.98067498,22.2922659 9.79659327,29.6953217 15.2659481,28.9472017 C15.2659481,28.9472017 17.9596923,28.364323 20,27.0332952 L13.3885972,21.7941374 C13.3885972,21.7941374 11.4292073,23.04253 10.2053504,21.3776299 C8.98031499,19.7138597 5.14475276,11.9780325 5.14475276,11.9780325 C5.14475276,11.9780325 4.08365135,9.4823773 6.45064854,8.40142795 L6.20458937,0 Z" id="Shape"></path>
                    <path d="M7,0.0253806285 C7,0.0253806285 7.41346109,-0.134115068 8.17211644,0.346547814 C8.93077179,0.828326559 8.93077179,1.22922621 8.93077179,1.22922621 L9,6.76994746 C9,6.76994746 8.79326702,7.09111465 8.51730098,7.4123098 C8.24134465,7.73347698 7.34518454,8.21525573 7.20673298,7.89408854 C7.06922578,7.57292136 7,0.0251568965 7,0.0251568965 L7,0.0253806285 Z" id="Shape"></path>
                    <path d="M14,22.0636122 L15.7201747,21.0073055 C15.7201747,21.0073055 16.1058689,20.9171156 16.7242309,21.3705197 C17.342593,21.8251699 20.5863416,24.8223823 20.5863416,24.8223823 C20.5863416,24.8223823 21.1271567,25.3672352 20.9720358,26.002259 C20.817973,26.6372828 20.4312207,28 20.4312207,28 L14,22.0636122 Z" id="Shape"></path>
                </g>
            </g>
        </g>
    </g>
</svg>