<?xml version="1.0" encoding="UTF-8"?>
<svg width="17px" height="27px" viewBox="0 0 17 27" version="1.1" xmlns="http://www.w3.org/2000/svg" xmlns:xlink="http://www.w3.org/1999/xlink">
    <!-- Generator: sketchtool 46.2 (44496) - http://www.bohemiancoding.com/sketch -->
    <title>111C39C9-E081-434C-9554-AA9FEAD0DC07</title>
    <desc>Created with sketchtool.</desc>
    <defs></defs>
    <g id="Symbols" stroke="none" stroke-width="1" fill="none" fill-rule="evenodd">
        <g id="Contact" transform="translate(-703.000000, -126.000000)" fill-rule="nonzero" fill="#FFFFFF">
            <g id="Details" transform="translate(120.000000, 125.000000)">
                <g id="ico_pin" transform="translate(583.000000, 1.000000)">
                    <path d="M8.52398782,0 C3.80974787,0 0,3.77593389 0,8.45295927 C0,14.6579106 6.48378011,24.4138153 8.11458614,26.7971533 C8.29523066,27.0676156 8.70434218,27.0676156 8.88496857,26.7971533 C10.5178601,24.4139052 16.9995547,14.6579106 16.9995547,8.45295927 C17.0473726,3.77620365 13.2379104,1.59730568e-15 8.52362511,1.59730568e-15 L8.52398782,0 Z M8.52398782,12.4535141 C6.34740355,12.4535141 4.62419878,10.7007873 4.62419878,8.58622118 C4.62419878,6.47345344 6.39165339,4.71892824 8.52398782,4.71892824 C10.6545087,4.71892824 12.4237768,6.47165504 12.4237768,8.58622118 C12.4237768,10.7007873 10.7005721,12.4535141 8.52398782,12.4535141 Z" id="Shape"></path>
                </g>
            </g>
        </g>
    </g>
</svg>