<svg xmlns="http://www.w3.org/2000/svg" width="18" height="18" viewBox="0 0 18 18">
    <path fill="#E11B22" fill-rule="nonzero" d="M11.967 2.053A6.96 6.96 0 0 0 7.01 0C5.137 0 3.378.73 2.053 2.053A6.962 6.962 0 0 0 0 7.01c0 1.873.73 3.632 2.053 4.956A6.964 6.964 0 0 0 7.01 14.02c1.873 0 3.632-.73 4.957-2.054 2.734-2.732 2.733-7.18 0-9.913zm-1.262 8.652a5.191 5.191 0 0 1-3.695 1.53 5.193 5.193 0 0 1-3.695-1.53 5.19 5.19 0 0 1-1.53-3.694 5.19 5.19 0 0 1 1.53-3.695 5.188 5.188 0 0 1 3.695-1.53c1.396 0 2.708.543 3.695 1.53a5.231 5.231 0 0 1 0 7.39zm7.034 5.772l-3.743-3.743a.892.892 0 1 0-1.261 1.262l3.742 3.743a.89.89 0 0 0 1.262 0 .894.894 0 0 0 0-1.262z"/>
</svg>
